<?xml version="1.0" encoding="UTF-8"?>
<svg id="Camada_1" data-name="Camada 1" xmlns="http://www.w3.org/2000/svg" viewBox="0 0 158 158">
  <defs>
    <style>
      .cls-1 {
        fill: none;
        stroke: #000;
        stroke-miterlimit: 10;
        stroke-width: 8px;
      }
    </style>
  </defs>
  <circle class="cls-1" cx="77.2" cy="76.14" r="56.77"/>
  <path d="M104.03,32.56c-17.84-.13-35.69-.27-53.53-.4-2.14,1.32-4.59,3.07-7.12,5.34-2.86,2.57-5.06,5.14-6.7,7.35l62.37.36c-20.93,20.53-41.86,41.07-62.79,61.6,1.73,2.43,4.07,5.24,7.17,8,1.72,1.53,3.4,2.8,4.97,3.87,38.46.01,57.7.01,57.7,0,0,0-.24,0-.71,0,2.19-1.6,4.6-3.57,7.06-5.97,2.67-2.6,4.84-5.16,6.58-7.46h0c-21.08.03-42.15.05-63.23.08,20.4-20.49,40.8-40.97,61.21-61.46-1.66-1.92-3.7-4.05-6.17-6.19-2.4-2.08-4.72-3.76-6.81-5.1Z"/>
</svg>